<?xml version="1.0" encoding="UTF-8" standalone="no" ?>
<!DOCTYPE svg PUBLIC "-//W3C//DTD SVG 1.1//EN" "http://www.w3.org/Graphics/SVG/1.1/DTD/svg11.dtd">
<svg xmlns="http://www.w3.org/2000/svg" xmlns:xlink="http://www.w3.org/1999/xlink" version="1.1" width="200" height="50" viewBox="0 0 200 50" xml:space="preserve">
<desc>Created with Fabric.js 4.4.0</desc>
<defs>
</defs>
<g transform="matrix(0.29442622610398267 0 0 0.29442622610398267 100.10784116252933 25.026229218838527)" id="background-custom-design"  >
<rect style="stroke: none; stroke-width: 0; stroke-dasharray: none; stroke-linecap: butt; stroke-dashoffset: 0; stroke-linejoin: miter; stroke-miterlimit: 4; fill: rgb(255,255,255); fill-rule: nonzero; opacity: 1;"  paint-order="stroke"  x="-340" y="-85" rx="0" ry="0" width="680" height="170" />
</g>
<g transform="matrix(0.09611132236953164 0 0 0.09611132236953165 28.448937807981224 25.08096058131917)" id="maker-logo"  >
<g style=""  paint-order="stroke"   >
		<g transform="matrix(1 0 0 1 0 0)" id="background-logo"  >
<rect style="stroke: none; stroke-width: 0; stroke-dasharray: none; stroke-linecap: butt; stroke-dashoffset: 0; stroke-linejoin: miter; stroke-miterlimit: 4; fill: rgb(255,255,255); fill-rule: nonzero; opacity: 1;"  paint-order="stroke"  x="-325" y="-260" rx="0" ry="0" width="650" height="520" />
</g>
		<g transform="matrix(0.8835152444343851 0 0 0.8835152444343851 -5.310444839543834 0.03250406300793429)" id="logo-logo"  >
<g style=""  paint-order="stroke"   >
		<g transform="matrix(1 0 0 1 -39.831278401853695 9.920910406270536)"  >
<path style="stroke: none; stroke-width: 1; stroke-dasharray: none; stroke-linecap: butt; stroke-dashoffset: 0; stroke-linejoin: miter; stroke-miterlimit: 4; fill: rgb(255,255,255); fill-rule: evenodd; opacity: 1;"  paint-order="stroke"  transform=" translate(-247.48746859748692, -297.1981237541356)" d="M 220.103 118.492 C 208.585 121.089 198.771 128.667 193.547 139 C 190.385 145.255 139.391 279.394 137.921 285.325 C 135.326 295.793 139.262 310.534 147.008 319.356 C 162.823 337.368 191.057 337.375 206.906 319.369 C 211.628 314.006 213.8 309.412 222.069 287.306 C 225.606 277.849 228.786 270.424 229.135 270.806 C 229.484 271.188 233.006 280.05 236.962 290.5 C 245.479 312.997 247.18 316.136 254.467 322.796 C 262.458 330.1 268.96 332.421 281.552 332.465 C 291.195 332.499 291.914 332.347 299.237 328.728 C 307.198 324.793 313.545 318.804 316.964 312 C 317.931 310.075 322.014 299.809 326.036 289.186 C 330.383 277.704 333.64 270.405 334.068 271.186 C 334.463 271.909 338.044 281.05 342.025 291.5 C 352.06 317.836 355.963 323.19 370 329.871 C 374.795 332.153 376.785 332.49 385.521 332.495 C 394.841 332.5 396.011 332.269 402.239 329.203 C 410.771 325.003 417.504 318.263 421.418 310.003 C 424.262 304.002 424.498 302.69 424.468 293 L 424.436 282.5 L 397.629 212.5 C 382.885 174 369.66 140.352 368.239 137.726 C 360.787 123.953 342.52 115.139 327.272 117.957 C 315.222 120.185 303.986 127.987 298.804 137.726 C 297.407 140.352 292.984 151.182 288.975 161.793 C 284.967 172.405 281.34 180.73 280.915 180.293 C 280.491 179.857 276.743 170.514 272.587 159.53 C 268.115 147.714 263.542 137.401 261.387 134.272 C 252.492 121.356 235.763 114.962 220.103 118.492 M 221 128.875 C 207.479 133.327 199.539 143.934 199.571 157.5 C 199.586 164.086 200.442 166.732 214.034 202.21 C 221.979 222.951 228.752 239.601 229.084 239.21 C 229.416 238.82 235.946 222.075 243.594 202 L 257.5 165.5 L 257.478 157 C 257.46 150.157 257.02 147.677 255.221 144.277 C 252.167 138.505 246.588 133.147 241.106 130.722 C 236.168 128.539 225.109 127.522 221 128.875 M 323.005 129.744 C 320.174 130.743 316.406 133.434 312.827 137.013 C 308.295 141.545 306.801 143.877 305.449 148.526 C 302.573 158.42 303.456 162.001 318.513 201.5 C 326.061 221.3 332.536 238.303 332.903 239.284 C 333.346 240.47 338.419 228.401 348.035 203.284 L 362.5 165.5 L 362.478 157 C 362.46 150.119 362.024 147.683 360.187 144.209 C 353.195 130.988 337.159 124.75 323.005 129.744 M 27.159 165.403 C 22.971 174.338 21.219 179.004 22.509 177.784 C 23.675 176.68 32.058 157.725 31.587 157.254 C 31.359 157.026 29.366 160.692 27.159 165.403 M 36.954 171.6 C 34.779 176.329 33 180.734 33 181.387 C 33 182.041 36.038 184.567 39.75 187.001 C 49.345 193.29 62.777 206.983 69.484 217.311 C 80.902 234.894 85.56 249.501 87.082 272.5 C 89.051 302.255 92.532 317.316 101.612 335.365 C 119.381 370.688 151.334 395.314 191.5 404.642 C 198.947 406.371 205.103 406.5 280.5 406.5 L 361.5 406.5 L 372.441 403.723 C 384.097 400.765 398.292 395.125 407.114 389.947 C 434.681 373.768 456.082 347.503 465.92 317.777 C 471.816 299.963 472.228 295.804 472.73 249.051 C 473.058 218.551 472.863 204.485 472.075 201.854 C 470.528 196.694 466.822 194 461.266 194 C 457.562 194 456.309 194.529 453.901 197.106 L 451 200.212 L 450.983 239.356 C 450.973 260.885 450.535 282.55 450.008 287.5 C 445.373 331.074 415.964 367.204 374.476 380.293 C 359.686 384.959 355.564 385.144 275 384.758 C 200.654 384.401 199.378 384.362 191.546 382.179 C 161.845 373.899 137.424 354.961 123.252 329.217 C 114.2 312.774 111.378 301.77 109.476 275.5 C 107.447 247.489 103.13 231.363 92.869 213.468 C 85.592 200.777 80.89 194.691 70.094 183.992 C 61.292 175.27 44.925 163 42.092 163 C 41.441 163 39.129 166.87 36.954 171.6 M 191.03 172.106 C 191.014 172.439 181.264 198.089 169.365 229.106 C 148.405 283.74 147.727 285.734 147.63 293 C 147.468 305.1 153.028 314.42 163.452 319.52 C 176.892 326.096 193.68 322.004 201.446 310.258 C 203.948 306.473 223 257.746 223 255.132 C 223 253.741 193.521 175.883 191.903 173 C 191.44 172.175 191.047 171.773 191.03 172.106 M 264.072 177.538 C 262.846 180.817 255.803 199.367 248.421 218.761 C 241.039 238.155 235 254.696 235 255.519 C 235 257.392 252.094 302.317 254.819 307.607 C 257.336 312.492 262.182 317.097 268 320.132 C 271.659 322.04 273.994 322.471 280.5 322.435 C 289.988 322.384 296.366 319.658 302.257 313.137 C 308.462 306.27 309.471 303.528 309.486 293.5 L 309.5 284.5 L 291.694 238 C 281.9 212.425 272.181 187.017 270.095 181.538 L 266.302 171.576 L 264.072 177.538 M 295.213 174 C 294.667 175.375 292.53 180.904 290.464 186.286 L 286.708 196.072 L 302.521 237.57 C 311.217 260.393 318.645 278.715 319.027 278.284 C 319.409 277.853 321.627 272.489 323.956 266.364 L 328.191 255.227 L 312.984 215.364 C 304.621 193.439 297.424 174.6 296.992 173.5 C 296.246 171.602 296.155 171.628 295.213 174 M 354.744 213.811 L 338.987 255.5 L 348.469 280.252 C 353.684 293.866 358.618 306.295 359.434 307.872 C 363.57 315.871 375.854 323 385.5 323 C 397.047 323 409.729 314.145 413.324 303.572 C 417.121 292.407 417.08 292.257 393.433 230.147 C 381.571 198.991 371.558 173.19 371.183 172.811 C 370.807 172.432 363.41 190.882 354.744 213.811 M 187.5 424.867 C 169.688 432.987 165.344 455.439 178.952 469.048 C 190.002 480.097 208.651 479.495 218.549 467.77 C 227.827 456.779 227.074 439.967 216.872 430.307 C 209.385 423.216 196.398 420.811 187.5 424.867 M 344.5 425.353 C 338.819 428.004 332.799 434.166 330.457 439.728 C 329.583 441.802 328.848 446.247 328.823 449.604 C 328.708 464.898 340.606 477.079 355.5 476.914 C 366.136 476.797 374.564 471.889 379.5 462.939 C 382.083 458.256 382.5 456.458 382.5 450 C 382.5 443.566 382.081 441.743 379.551 437.176 C 372.56 424.555 357.265 419.396 344.5 425.353" stroke-linecap="round" />
</g>
		<g transform="matrix(1 0 0 1 -5.684342e-14 0)"  >
<linearGradient id="SVGID_1_1264267" gradientUnits="userSpaceOnUse" gradientTransform="matrix(1 0 0 1 1.1373073239531664 1.1444266957302034)"  x1="0" y1="0" x2="0" y2="572">
<stop offset="0%" style="stop-color:rgb(250,217,97);stop-opacity: 1"/>
<stop offset="100%" style="stop-color:rgb(247,107,28);stop-opacity: 1"/>
</linearGradient>
<path style="stroke: none; stroke-width: 1; stroke-dasharray: none; stroke-linecap: butt; stroke-dashoffset: 0; stroke-linejoin: miter; stroke-miterlimit: 4; fill: url(#SVGID_1_1264267); fill-rule: evenodd; opacity: 1;"  paint-order="stroke"  transform=" translate(-287.31874699934053, -287.2772133478651)" d="M 267.182 2.119 C 199.443 6.696 135.047 35.826 86.672 83.776 C 57.358 112.832 41.891 135.636 22.691 178.109 C 12.891 199.79 4.466 234.275 1.907 263.188 C 0.323 281.082 1.275 312.577 3.927 330 C 15.295 404.699 54.679 470.938 114.535 516.029 C 153.912 545.694 196.03 563.44 245.5 571.211 C 257.422 573.083 263.581 573.41 287 573.41 C 318.539 573.41 331.715 571.868 358.393 565.055 C 437.945 544.74 505.425 490.536 542.712 417 C 576.577 350.212 582.794 272.041 559.929 200.52 C 526.772 96.806 437.265 20.694 329.489 4.568 C 318.561 2.933 292.461 0.955 284.5 1.159 C 281.75 1.23 273.957 1.662 267.182 2.119 M 220.103 118.492 C 208.585 121.089 198.771 128.667 193.547 139 C 190.385 145.255 139.391 279.394 137.921 285.325 C 135.326 295.793 139.262 310.534 147.008 319.356 C 162.823 337.368 191.057 337.375 206.906 319.369 C 211.628 314.006 213.8 309.412 222.069 287.306 C 225.606 277.849 228.786 270.424 229.135 270.806 C 229.484 271.188 233.006 280.05 236.962 290.5 C 245.479 312.997 247.18 316.136 254.467 322.796 C 262.458 330.1 268.96 332.421 281.552 332.465 C 291.195 332.499 291.914 332.347 299.237 328.728 C 307.198 324.793 313.545 318.804 316.964 312 C 317.931 310.075 322.014 299.809 326.036 289.186 C 330.383 277.704 333.64 270.405 334.068 271.186 C 334.463 271.909 338.044 281.05 342.025 291.5 C 352.06 317.836 355.963 323.19 370 329.871 C 374.795 332.153 376.785 332.49 385.521 332.495 C 394.841 332.5 396.011 332.269 402.239 329.203 C 410.771 325.003 417.504 318.263 421.418 310.003 C 424.262 304.002 424.498 302.69 424.468 293 L 424.436 282.5 L 397.629 212.5 C 382.885 174 369.66 140.352 368.239 137.726 C 360.787 123.953 342.52 115.139 327.272 117.957 C 315.222 120.185 303.986 127.987 298.804 137.726 C 297.407 140.352 292.984 151.182 288.975 161.793 C 284.967 172.405 281.34 180.73 280.915 180.293 C 280.491 179.857 276.743 170.514 272.587 159.53 C 268.115 147.714 263.542 137.401 261.387 134.272 C 252.492 121.356 235.763 114.962 220.103 118.492 M 221 128.875 C 207.479 133.327 199.539 143.934 199.571 157.5 C 199.586 164.086 200.442 166.732 214.034 202.21 C 221.979 222.951 228.752 239.601 229.084 239.21 C 229.416 238.82 235.946 222.075 243.594 202 L 257.5 165.5 L 257.478 157 C 257.46 150.157 257.02 147.677 255.221 144.277 C 252.167 138.505 246.588 133.147 241.106 130.722 C 236.168 128.539 225.109 127.522 221 128.875 M 323.005 129.744 C 320.174 130.743 316.406 133.434 312.827 137.013 C 308.295 141.545 306.801 143.877 305.449 148.526 C 302.573 158.42 303.456 162.001 318.513 201.5 C 326.061 221.3 332.536 238.303 332.903 239.284 C 333.346 240.47 338.419 228.401 348.035 203.284 L 362.5 165.5 L 362.478 157 C 362.46 150.119 362.024 147.683 360.187 144.209 C 353.195 130.988 337.159 124.75 323.005 129.744 M 36.954 171.6 C 34.779 176.329 33 180.734 33 181.387 C 33 182.041 36.038 184.567 39.75 187.001 C 49.345 193.29 62.777 206.983 69.484 217.311 C 80.902 234.894 85.56 249.501 87.082 272.5 C 89.051 302.255 92.532 317.316 101.612 335.365 C 119.381 370.688 151.334 395.314 191.5 404.642 C 198.947 406.371 205.103 406.5 280.5 406.5 L 361.5 406.5 L 372.441 403.723 C 384.097 400.765 398.292 395.125 407.114 389.947 C 434.681 373.768 456.082 347.503 465.92 317.777 C 471.816 299.963 472.228 295.804 472.73 249.051 C 473.058 218.551 472.863 204.485 472.075 201.854 C 470.528 196.694 466.822 194 461.266 194 C 457.562 194 456.309 194.529 453.901 197.106 L 451 200.212 L 450.983 239.356 C 450.973 260.885 450.535 282.55 450.008 287.5 C 445.373 331.074 415.964 367.204 374.476 380.293 C 359.686 384.959 355.564 385.144 275 384.758 C 200.654 384.401 199.378 384.362 191.546 382.179 C 161.845 373.899 137.424 354.961 123.252 329.217 C 114.2 312.774 111.378 301.77 109.476 275.5 C 107.447 247.489 103.13 231.363 92.869 213.468 C 85.592 200.777 80.89 194.691 70.094 183.992 C 61.292 175.27 44.925 163 42.092 163 C 41.441 163 39.129 166.87 36.954 171.6 M 191.03 172.106 C 191.014 172.439 181.264 198.089 169.365 229.106 C 148.405 283.74 147.727 285.734 147.63 293 C 147.468 305.1 153.028 314.42 163.452 319.52 C 176.892 326.096 193.68 322.004 201.446 310.258 C 203.948 306.473 223 257.746 223 255.132 C 223 253.741 193.521 175.883 191.903 173 C 191.44 172.175 191.047 171.773 191.03 172.106 M 264.072 177.538 C 262.846 180.817 255.803 199.367 248.421 218.761 C 241.039 238.155 235 254.696 235 255.519 C 235 257.392 252.094 302.317 254.819 307.607 C 257.336 312.492 262.182 317.097 268 320.132 C 271.659 322.04 273.994 322.471 280.5 322.435 C 289.988 322.384 296.366 319.658 302.257 313.137 C 308.462 306.27 309.471 303.528 309.486 293.5 L 309.5 284.5 L 291.694 238 C 281.9 212.425 272.181 187.017 270.095 181.538 L 266.302 171.576 L 264.072 177.538 M 295.213 174 C 294.667 175.375 292.53 180.904 290.464 186.286 L 286.708 196.072 L 302.521 237.57 C 311.217 260.393 318.645 278.715 319.027 278.284 C 319.409 277.853 321.627 272.489 323.956 266.364 L 328.191 255.227 L 312.984 215.364 C 304.621 193.439 297.424 174.6 296.992 173.5 C 296.246 171.602 296.155 171.628 295.213 174 M 354.744 213.811 L 338.987 255.5 L 348.469 280.252 C 353.684 293.866 358.618 306.295 359.434 307.872 C 363.57 315.871 375.854 323 385.5 323 C 397.047 323 409.729 314.145 413.324 303.572 C 417.121 292.407 417.08 292.257 393.433 230.147 C 381.571 198.991 371.558 173.19 371.183 172.811 C 370.807 172.432 363.41 190.882 354.744 213.811 M 187.5 424.867 C 169.688 432.987 165.344 455.439 178.952 469.048 C 190.002 480.097 208.651 479.495 218.549 467.77 C 227.827 456.779 227.074 439.967 216.872 430.307 C 209.385 423.216 196.398 420.811 187.5 424.867 M 344.5 425.353 C 338.819 428.004 332.799 434.166 330.457 439.728 C 329.583 441.802 328.848 446.247 328.823 449.604 C 328.708 464.898 340.606 477.079 355.5 476.914 C 366.136 476.797 374.564 471.889 379.5 462.939 C 382.083 458.256 382.5 456.458 382.5 450 C 382.5 443.566 382.081 441.743 379.551 437.176 C 372.56 424.555 357.265 419.396 344.5 425.353" stroke-linecap="round" />
</g>
</g>
</g>
</g>
</g>
<g transform="matrix(0.29442622610398267 0 0 0.29442622610398267 129.4431875645 25.64833641055088)" id="text-logo"  >
<g style=""  paint-order="stroke"   >
		<g transform="matrix(1 0 0 1 0 0)" id="text-logo-path-0"  >
<linearGradient id="SVGID_1264268" gradientUnits="userSpaceOnUse" gradientTransform="matrix(1 0 0 1 3.5999999999999943 -42.01)"  x1="0" y1="0" x2="0" y2="68">
<stop offset="0%" style="stop-color:rgb(250,217,97);stop-opacity: 1"/>
<stop offset="100%" style="stop-color:rgb(247,107,28);stop-opacity: 1"/>
</linearGradient>
<path style="stroke: none; stroke-width: 0; stroke-dasharray: none; stroke-linecap: butt; stroke-dashoffset: 0; stroke-linejoin: miter; stroke-miterlimit: 4; fill: url(#SVGID_1264268); fill-rule: nonzero; opacity: 1;"  paint-order="stroke"  transform=" translate(-232.295, 20.709999999999997)" d="M 14.41 0 L 3.6 0 L 3.6 -42.01 L 15 -42.01 L 27.01 -19.8 L 38.99 -42.01 L 50.39 -42.01 L 50.39 0 L 39.61 0 L 39.61 -23.41 L 31.2 -8.41 L 22.79 -8.41 L 14.41 -23.41 L 14.41 0 Z M 68.41 0 L 57.6 0 L 57.6 -42.01 L 68.99 -42.01 L 81.01 -19.8 L 92.99 -42.01 L 104.38 -42.01 L 104.38 0 L 93.6 0 L 93.6 -23.41 L 85.2 -8.41 L 76.79 -8.41 L 68.41 -23.41 L 68.41 0 Z M 121.2 -33.6 L 108.57 -33.6 L 108.57 -42.01 L 144.58 -42.01 L 144.58 -33.6 L 131.98 -33.6 L 131.98 0 L 121.2 0 L 121.2 -33.6 Z M 174.26 0 L 162.57 0 L 178.45 -42.01 L 190.46 -42.01 L 206.37 0 L 194.65 0 L 191.95 -7.5 L 176.95 -7.5 L 174.26 0 Z M 184.45 -29.41 L 179.65 -15.29 L 189.26 -15.29 L 184.45 -29.41 Z M 206.95 -10.81 L 206.95 -10.81 L 206.95 -30 Q 206.95 -36.3 209.79 -39.16 Q 212.64 -42.01 218.96 -42.01 L 218.96 -42.01 L 240.56 -42.01 L 240.56 -33.6 L 221.34 -33.6 Q 217.73 -33.6 217.76 -30 L 217.76 -30 L 217.76 -10.81 Q 217.76 -9.43 218.57 -8.61 Q 219.38 -7.79 220.63 -7.79 Q 221.89 -7.79 223.39 -7.82 Q 224.88 -7.85 226.51 -7.91 Q 228.13 -7.97 229.79 -8.03 Q 231.45 -8.09 234.05 -8.28 Q 236.66 -8.47 240.56 -8.7 L 240.56 -8.7 L 240.56 -0.59 Q 227.49 0.59 218.76 0.59 L 218.76 0.59 Q 218.55 0.59 218.35 0.59 L 218.35 0.59 Q 212.46 0.59 209.71 -2.17 Q 206.95 -4.92 206.95 -10.81 Z M 252.83 0 L 241.14 0 L 257.02 -42.01 L 269.03 -42.01 L 284.94 0 L 273.22 0 L 270.53 -7.5 L 255.53 -7.5 L 252.83 0 Z M 263.03 -29.41 L 258.22 -15.29 L 267.83 -15.29 L 263.03 -29.41 Z M 311.34 0 L 287.93 0 L 287.93 -42.01 L 311.34 -42.01 Q 318.11 -42.01 321.62 -38.5 Q 325.14 -34.98 325.14 -28.21 L 325.14 -28.21 L 325.14 -13.8 Q 325.14 -7.03 321.62 -3.52 Q 318.11 0 311.34 0 L 311.34 0 Z M 298.74 -33.6 L 298.74 -8.41 L 308.94 -8.41 Q 314.33 -8.41 314.33 -13.8 L 314.33 -13.8 L 314.33 -28.21 Q 314.33 -33.6 308.94 -33.6 L 308.94 -33.6 L 298.74 -33.6 Z M 364.42 0 L 331.11 0 L 331.11 -42.01 L 364.42 -42.01 L 364.42 -33.6 L 341.92 -33.6 L 341.92 -25.49 L 359.62 -25.49 L 359.62 -17.11 L 341.92 -17.11 L 341.92 -8.41 L 364.42 -8.41 L 364.42 0 Z M 380.01 0 L 369.2 0 L 369.2 -42.01 L 380.6 -42.01 L 392.61 -19.8 L 404.59 -42.01 L 415.99 -42.01 L 415.99 0 L 405.21 0 L 405.21 -23.41 L 396.8 -8.41 L 388.39 -8.41 L 380.01 -23.41 L 380.01 0 Z M 434.3 -11.1 L 418.39 -42.01 L 429.79 -42.01 L 439.69 -21.59 L 449.59 -42.01 L 460.99 -42.01 L 445.08 -11.1 L 445.08 0 L 434.3 0 L 434.3 -11.1 Z" stroke-linecap="round" />
</g>
</g>
</g>
</svg>